<svg xmlns="http://www.w3.org/2000/svg" width="86.482" height="92" viewBox="0 0 86.482 92">
  <g id="Overseas" transform="translate(-15.355)">
    <path id="Path_27106" data-name="Path 27106" d="M98.575,32.263a19.421,19.421,0,0,0,3.157-9.323A10.513,10.513,0,0,0,98.875,15.3a10.03,10.03,0,0,0-7.219-3.164h-.113A10.116,10.116,0,0,0,85,14.516,43.265,43.265,0,0,0,40.555,9.457a10.511,10.511,0,0,0-2.823-6.292A10.029,10.029,0,0,0,30.513,0H30.4A10.2,10.2,0,0,0,20.2,10.2c0,4.538,2.13,8.66,4.433,11.791a43.1,43.1,0,0,0-6.419,11.272,1.346,1.346,0,1,0,2.513.965,40.391,40.391,0,0,1,5.578-10,9.465,9.465,0,0,0-.053.954v6.539a3.448,3.448,0,0,0,5.416,2.833l4.824-3.349a7.986,7.986,0,0,1,4.575-1.432h6.208a8.956,8.956,0,0,0,6.374-2.64l6.126-6.126a5.574,5.574,0,0,0,.259-7.584L57.052,10a2.124,2.124,0,0,1-.489-1.738c.677-.034,1.355-.055,2.034-.055a40.658,40.658,0,0,1,24.578,8.3,10.119,10.119,0,0,0-1.831,5.832,16.306,16.306,0,0,0,.946,5.343,15.779,15.779,0,0,0,1.243,8.595l2.618,5.829a8.707,8.707,0,0,0,12.8,3.658l.083-.056q.112,1.516.112,3.05a40.549,40.549,0,1,1-80.03-9.289,1.346,1.346,0,0,0-2.62-.614,43.449,43.449,0,0,0-1.14,9.9,43.241,43.241,0,1,0,83.22-16.5ZM25.12,4.862A7.456,7.456,0,0,1,30.4,2.692h.083a7.359,7.359,0,0,1,5.3,2.326A7.807,7.807,0,0,1,37.9,10.689c-.25,6-5.07,11.395-7.131,13.437a.523.523,0,0,1-.735,0C27.887,22,22.892,16.382,22.892,10.2A7.456,7.456,0,0,1,25.12,4.862Zm29.9,6.91,2.983,3.421a2.875,2.875,0,0,1-.134,3.911L51.747,25.23a6.281,6.281,0,0,1-4.471,1.852H41.068A10.665,10.665,0,0,0,34.958,29l-4.824,3.349a.758.758,0,0,1-1.19-.622v-5.1a3.224,3.224,0,0,0,3.72-.58c2.6-2.572,6.831-7.574,7.755-13.53A40.585,40.585,0,0,1,53.847,8.491,4.817,4.817,0,0,0,55.023,11.772Zm36.52,3.058h.083a7.359,7.359,0,0,1,5.3,2.326,7.807,7.807,0,0,1,2.121,5.671c-.25,6-5.07,11.395-7.131,13.437a.524.524,0,0,1-.735,0c-2.147-2.128-7.142-7.745-7.142-13.926a7.509,7.509,0,0,1,7.509-7.509Zm5.9,28.7A6.015,6.015,0,0,1,88.6,41l-2.618-5.829A13.148,13.148,0,0,1,85.4,33.61a34.43,34.43,0,0,0,3.881,4.568,3.223,3.223,0,0,0,4.524,0,35.242,35.242,0,0,0,2.912-3.268A40.07,40.07,0,0,1,98.7,42.692Z" transform="translate(0 0)"/>
    <path id="Path_27107" data-name="Path 27107" d="M413.353,105.759a5.592,5.592,0,1,0-5.592-5.592A5.6,5.6,0,0,0,413.353,105.759Zm0-8.534a2.941,2.941,0,1,1-2.941,2.941A2.945,2.945,0,0,1,413.353,97.225Z" transform="translate(-321.652 -77.545)" fill="#e31e24"/>
    <path id="Path_27108" data-name="Path 27108" d="M181.975,149.267a9.876,9.876,0,0,0-7.109-3.116h-.111a10.052,10.052,0,0,0-9.841,8.023,9.071,9.071,0,0,0-7.791,3.816l-4.453,6.29a8.033,8.033,0,0,0-.613,8.284,10.014,10.014,0,0,0-.867,4.089c0,5.838,3.578,10.975,6.441,14.152l-.288,7.834a5.542,5.542,0,0,0,8.7,4.752l12.2-8.475a19.793,19.793,0,0,0,4.876-4.833l3.683-5.2a1.325,1.325,0,0,0-2.163-1.532l-3.683,5.2a17.154,17.154,0,0,1-4.225,4.188l-12.2,8.475a2.888,2.888,0,0,1-4.534-2.478l.216-5.747a3.162,3.162,0,0,0,3.256-.74c2.8-2.772,7.53-8.406,7.8-15a10.354,10.354,0,0,0-2.814-7.52,9.979,9.979,0,0,0-14.284-.213c-.09.089-.175.18-.261.271a5.388,5.388,0,0,1,.923-3.971l4.453-6.29a6.419,6.419,0,0,1,5.439-2.7c.285,6.561,4.974,12.167,7.8,14.971a3.174,3.174,0,0,0,4.455,0,33.668,33.668,0,0,0,4-4.76l6.877,4.868a3.981,3.981,0,0,1,.949,5.549l-.967,1.366a1.325,1.325,0,1,0,2.163,1.532l.967-1.366a6.631,6.631,0,0,0-1.581-9.244l-7.011-4.963a18.286,18.286,0,0,0,2.407-7.986A10.351,10.351,0,0,0,181.975,149.267Zm-20.74,19.99h.082a7.247,7.247,0,0,1,5.215,2.29,7.689,7.689,0,0,1,2.089,5.585c-.247,5.906-4.993,11.221-7.023,13.232a.515.515,0,0,1-.723,0c-2.115-2.1-7.034-7.626-7.034-13.714a7.395,7.395,0,0,1,7.394-7.395Zm13.883.651a.515.515,0,0,1-.723,0c-2.115-2.1-7.034-7.627-7.034-13.714a7.395,7.395,0,0,1,7.394-7.395h.082a7.247,7.247,0,0,1,5.215,2.29,7.688,7.688,0,0,1,2.088,5.585C181.895,162.581,177.148,167.9,175.119,169.908Z" transform="translate(-111.08 -118.887)"/>
    <path id="Path_27109" data-name="Path 27109" d="M262.637,177.436a1.325,1.325,0,0,0-1.325,1.325,2.938,2.938,0,1,1-2.358-2.884,1.325,1.325,0,1,0,.522-2.6,5.592,5.592,0,1,0,4.486,5.482A1.325,1.325,0,0,0,262.637,177.436Z" transform="translate(-194.663 -141.986)"/>
    <path id="Path_27110" data-name="Path 27110" d="M181.96,299.962a5.592,5.592,0,1,0-5.592-5.592A5.6,5.6,0,0,0,181.96,299.962Zm0-8.534a2.941,2.941,0,1,1-2.941,2.941A2.945,2.945,0,0,1,181.96,291.428Z" transform="translate(-132.014 -236.777)" fill="#e31e24"/>
    <path id="Path_27111" data-name="Path 27111" d="M78.672,32.61A5.592,5.592,0,1,0,73.08,38.2,5.6,5.6,0,0,0,78.672,32.61Zm-8.533,0a2.941,2.941,0,1,1,2.941,2.941A2.945,2.945,0,0,1,70.139,32.61Z" transform="translate(-42.908 -22.237)" fill="#e31e24"/>
  </g>
</svg>
